<svg width="18" height="18" viewBox="0 0 18 18" fill="none" xmlns="http://www.w3.org/2000/svg">
<path d="M8.6775 10.3687C7.6575 10.5787 7.05 11.2387 7.05 12.1762C7.05 13.1812 7.8825 13.9912 8.9175 13.9912C10.455 13.9912 11.7 12.7462 11.7 11.2087C11.7 10.4062 11.5875 9.61872 11.355 8.86872C10.7625 9.67122 9.705 10.1587 8.6775 10.3687ZM10.125 1.00122C10.125 1.00122 10.68 2.98872 10.68 4.60122C10.68 6.14622 9.6675 7.39872 8.1225 7.39872C6.57 7.39872 5.4 6.14622 5.4 4.60122L5.4225 4.33122C3.9075 6.13122 3 8.46372 3 10.9987C3 14.3137 5.685 16.9987 9 16.9987C12.315 16.9987 15 14.3137 15 10.9987C15 6.95622 13.0575 3.34872 10.125 1.00122ZM9 15.4987C6.5175 15.4987 4.5 13.4812 4.5 10.9987C4.5 9.85122 4.725 8.71872 5.145 7.67622C5.9025 8.43372 6.9525 8.89872 8.1225 8.89872C10.1175 8.89872 11.685 7.52622 12.0825 5.57622C13.005 7.22622 13.5 9.07872 13.5 10.9987C13.5 13.4812 11.4825 15.4987 9 15.4987Z" fill="#333333"/>
</svg>
