<svg width="24" height="19" viewBox="0 0 24 19" fill="none" xmlns="http://www.w3.org/2000/svg">
<path d="M1.4975 18.2609C1.23488 18.2609 0.986079 18.2047 0.764924 18.0924C0.170568 17.7881 -0.110484 17.114 0.0415602 16.3791L3.10088 1.88647C3.32204 0.847274 4.33106 0 5.3539 0H22.5027C23.5255 0 24.1798 0.847274 23.9586 1.88647L21.5397 13.3364C21.3186 14.3756 20.3096 15.2229 19.2867 15.2229H6.2846L2.81061 17.8021C2.40516 18.1064 1.93521 18.2609 1.4975 18.2609ZM5.67182 2.80864L3.2345 14.3522L5.2249 12.873C5.62574 12.5734 6.09109 12.4142 6.53801 12.4142H18.9734L21.0007 2.80864H5.67182Z" fill="black"/>
</svg>
