<svg width="18" height="18" viewBox="0 0 18 18" fill="none" xmlns="http://www.w3.org/2000/svg">
<g clip-path="url(#clip0_275_372)">
<path d="M16.992 14.2422L10.182 7.43223C10.8795 5.67723 10.5195 3.60723 9.10196 2.18223C7.37696 0.457234 4.69196 0.299734 2.77946 1.69473L5.65946 4.58223L4.59446 5.63973L1.72196 2.76723C0.326956 4.67223 0.484456 7.36473 2.20946 9.08223C3.60446 10.4772 5.63696 10.8447 7.37696 10.1922L14.2095 17.0247C14.502 17.3172 14.9745 17.3172 15.267 17.0247L16.992 15.2997C17.292 15.0147 17.292 14.5422 16.992 14.2422ZM14.742 15.4422L7.64696 8.34723C7.18946 8.68473 6.67946 8.88723 6.14696 8.96223C5.12696 9.11223 4.05446 8.80473 3.27446 8.02473C2.56196 7.31973 2.23196 6.37473 2.28446 5.44473L4.60196 7.76223L7.78196 4.58223L5.46446 2.26473C6.39446 2.21223 7.33196 2.54223 8.04446 3.24723C8.85446 4.05723 9.16196 5.17473 8.97446 6.21723C8.88446 6.74973 8.65946 7.24473 8.31446 7.68723L15.402 14.7747L14.742 15.4422Z" fill="#333333"/>
</g>
<defs>
<clipPath id="clip0_275_372">
<rect width="18" height="18" fill="white"/>
</clipPath>
</defs>
</svg>
