<svg width="29" height="20" viewBox="0 0 29 20" fill="none" xmlns="http://www.w3.org/2000/svg">
<path d="M12.9957 2.85307C13.224 2.85307 13.4379 3.03852 13.4379 3.29529V16.6762C13.4379 16.933 13.224 17.1184 12.9957 17.1184C12.9244 17.1184 12.8531 17.1041 12.7817 17.0613L6.60485 13.6662H2.96719C2.96719 13.6662 2.85307 13.6091 2.85307 13.5521V6.43367C2.85307 6.43367 2.91013 6.31954 2.96719 6.31954H6.60485L12.7817 2.92439C12.7817 2.92439 12.9244 2.86733 12.9957 2.86733M12.9957 0.0142653C12.4394 0.0142653 11.8973 0.156919 11.4123 0.42796L5.87732 3.48074H2.96719C1.32668 3.48074 0 4.80742 0 6.44793V13.5663C0 15.2068 1.32668 16.5335 2.96719 16.5335H5.87732L11.4123 19.5863C11.8973 19.8573 12.4536 20 12.9957 20C14.8074 20 16.291 18.5164 16.291 16.7047V3.29529C16.291 1.48359 14.8074 0 12.9957 0V0.0142653Z" fill="white" fill-opacity="0.8"/>
</svg>
