<svg width="24" height="16" viewBox="0 0 24 16" fill="currentColor" xmlns="http://www.w3.org/2000/svg">
<path d="M21.7606 9.87627C23.5927 7.54976 25.2913 3.40297 22.5992 1.00107C19.6775 -1.60548 15.6448 1.41575 13.9249 3.94152C13.6258 4.37235 13.348 4.87858 13.1077 5.41174C13.1557 5.08323 13.1878 4.76549 13.1931 4.44236C13.2732 0.322506 9.2619 -0.824592 6.16926 1.00107C3.06059 2.84289 0.854612 6.75271 1.7573 10.4148C1.92288 11.0826 2.17927 11.6588 2.51043 12.1651C1.89618 12.3374 1.2659 12.4774 0.630275 12.5851L0 15.7625C1.84811 15.5364 3.76565 15.1378 5.50159 14.4539C7.10934 15.0678 8.98414 15.2348 10.688 15.1648C12.3225 15.1055 13.8928 14.8363 15.3724 14.3408C17.3487 15.1809 19.6508 15.5741 21.8354 15.7895L22.4337 12.7629C21.3974 12.6444 20.3666 12.4667 19.3464 12.2512C20.2277 11.5834 21.0342 10.7918 21.7553 9.87088L21.7606 9.87627ZM5.4001 11.0072C3.59473 9.32695 5.01553 6.07415 6.4203 4.6524C7.0399 4.0223 8.11885 3.10678 9.06427 3.12832C10.7308 3.1714 10.0631 5.35789 9.63045 6.37573C8.71174 8.52991 7.21081 10.0055 5.39476 11.0072H5.4001ZM9.18712 12.2135C10.4423 11.0772 11.564 9.59622 12.2958 8.01291C12.0554 9.37542 12.1035 10.7649 12.6109 11.912C11.548 12.1112 10.3408 12.2459 9.18712 12.2135ZM15.5593 11.0449C15.5593 11.0449 15.5273 11.018 15.5166 11.0018C14.662 9.99475 15.3777 7.73825 15.8371 6.7204C16.3605 5.56792 17.2045 4.46929 18.2567 3.75303C19.2556 3.07446 20.7298 2.6921 20.9434 4.27542C21.077 5.25556 20.468 6.37573 19.966 7.16739C18.9084 8.84765 17.354 10.2263 15.5593 11.0395V11.0449Z" fill="currentColor"/>
</svg>
