<svg width="17" height="13" viewBox="0 0 17 13" fill="none" xmlns="http://www.w3.org/2000/svg">
<path fill-rule="evenodd" clip-rule="evenodd" d="M0.397803 5.15025C1.67074 3.18178 4.17937 0.474121 8.00752 0.474121C11.836 0.474121 14.3423 3.18225 15.6172 5.1502L15.6177 5.15089C16.1473 5.97159 16.1478 7.03077 15.6172 7.84997C14.3443 9.81844 11.8357 12.5261 8.00752 12.5261C4.17906 12.5261 1.67277 9.81796 0.397833 7.85002L0.397388 7.84933C-0.132284 7.02863 -0.13278 5.96945 0.397803 5.15025ZM8.00752 1.41771C4.6646 1.41771 2.40345 3.78628 1.18998 5.66291L1.18978 5.66321C0.861769 6.16965 0.861206 6.82763 1.19 7.33734C2.40619 9.21446 4.66494 11.5825 8.00752 11.5825C11.3505 11.5825 13.6116 9.21394 14.8251 7.33731L14.8253 7.33701C15.1533 6.83051 15.1538 6.17242 14.8249 5.66267C13.6087 3.78559 11.35 1.41771 8.00752 1.41771Z" fill="white"/>
<path fill-rule="evenodd" clip-rule="evenodd" d="M8.0076 4.59984C6.95883 4.59984 6.10863 5.45004 6.10863 6.49881C6.10863 7.54758 6.95883 8.39778 8.0076 8.39778C9.05637 8.39778 9.90657 7.54758 9.90657 6.49881C9.90657 5.45004 9.05637 4.59984 8.0076 4.59984ZM5.16504 6.49881C5.16504 4.92891 6.4377 3.65625 8.0076 3.65625C9.5775 3.65625 10.8502 4.92891 10.8502 6.49881C10.8502 8.06871 9.5775 9.34137 8.0076 9.34137C6.4377 9.34137 5.16504 8.06871 5.16504 6.49881Z" fill="white"/>
</svg>
