<svg width="153" height="24" viewBox="0 0 153 24" fill="none" xmlns="http://www.w3.org/2000/svg">
<path d="M71.7841 16.2239C70.2497 17.9409 68.4039 18.7956 66.2465 18.7956C64.5408 18.7956 63.1935 18.3377 62.1965 17.4296C61.1996 16.5215 60.709 15.3158 60.709 13.8124C60.709 12.3091 61.0205 11.0347 61.6358 9.8595C62.2511 8.6843 63.1078 7.76093 64.2137 7.09702C65.3119 6.43311 66.5892 6.09734 68.0378 6.09734C70.2653 6.09734 71.9242 6.96729 73.0302 8.69956L77.6643 5.08239C76.8621 3.74694 75.6549 2.71673 74.0349 1.98414C72.4149 1.25155 70.5535 0.885254 68.4584 0.885254C65.6935 0.885254 63.2324 1.45759 61.0672 2.60227C58.9098 3.74694 57.2275 5.33422 56.0281 7.36411C54.8287 9.394 54.229 11.6833 54.229 14.2245C54.229 16.1476 54.6963 17.857 55.6231 19.3374C56.5499 20.8178 57.8818 21.9702 59.6108 22.7791C61.3398 23.5956 63.3492 24 65.639 24C67.7575 24 69.6345 23.6795 71.2778 23.0309C72.9212 22.3822 74.3542 21.3291 75.5848 19.8716L71.7918 16.2239H71.7841Z" fill="#333333"/>
<path d="M94.6664 7.58537C93.4982 6.57043 91.9638 6.05914 90.0635 6.05914C88.1631 6.05914 86.4341 6.63148 84.9465 7.77615L86.5353 0H80.3825L75.5848 23.5574H81.7377L83.4901 15.0486C83.7704 13.759 84.2533 12.7898 84.9465 12.1412C85.6397 11.4925 86.5197 11.172 87.6023 11.172C89.2223 11.172 90.0323 11.9351 90.0323 13.4614C90.0323 13.8658 89.9856 14.2474 89.8999 14.606L88.0852 23.5574H94.238L96.1851 14.0337C96.3331 13.3545 96.411 12.6677 96.411 11.9733C96.411 10.0655 95.8269 8.60795 94.6586 7.593L94.6664 7.58537Z" fill="#333333"/>
<path d="M115.594 17.6812C115.594 17.5515 115.617 17.3454 115.656 17.0478L117.86 6.34894H111.707L111.287 8.40936C110.251 6.84497 108.459 6.05896 105.905 6.05896C104.176 6.05896 102.587 6.49394 101.123 7.36389C99.6663 8.23384 98.5059 9.4243 97.6569 10.9353C96.8002 12.4462 96.3796 14.1404 96.3796 16.0024C96.3796 17.6125 96.7223 19.009 97.4155 20.1919C98.1087 21.3747 99.0199 22.2828 100.157 22.9086C101.294 23.5343 102.509 23.8472 103.802 23.8472C106.286 23.8472 108.265 22.8933 109.729 20.9931C110.072 21.886 110.687 22.5804 111.575 23.0917C112.463 23.603 113.584 23.8548 114.947 23.8548C116.006 23.8548 116.996 23.7098 117.93 23.4122L118.849 18.9098C118.413 18.9938 117.642 19.093 117.081 19.093C115.999 19.093 115.601 18.6885 115.601 17.6965L115.594 17.6812ZM108.95 17.6507C108.171 18.5435 107.167 18.9861 105.936 18.9861C104.9 18.9861 104.082 18.6962 103.49 18.1162C102.899 17.5362 102.603 16.735 102.603 15.72C102.603 14.2777 102.992 13.1178 103.771 12.2249C104.55 11.3397 105.554 10.8895 106.785 10.8895C107.821 10.8895 108.639 11.1871 109.23 11.7823C109.822 12.3776 110.118 13.1788 110.118 14.1938C110.118 15.6132 109.729 16.7655 108.95 17.6507Z" fill="#333333"/>
<path d="M149.652 15.0561C152.324 11.7594 154.8 5.88342 150.875 2.47992C146.615 -1.21356 140.734 3.06752 138.227 6.64653C137.79 7.25703 137.385 7.97435 137.035 8.72984C137.105 8.26434 137.152 7.8141 137.16 7.35623C137.276 1.51839 131.427 -0.107045 126.918 2.47992C122.385 5.08978 119.168 10.63 120.485 15.8192C120.726 16.7654 121.1 17.582 121.583 18.2993C120.687 18.5435 119.768 18.7419 118.841 18.8945L117.922 23.3969C120.617 23.0764 123.413 22.5117 125.944 21.5426C128.289 22.4125 131.022 22.6491 133.507 22.5499C135.89 22.4659 138.18 22.0844 140.337 21.3823C143.219 22.5728 146.576 23.1298 149.761 23.4351L150.634 19.1464C149.123 18.9785 147.619 18.7267 146.132 18.4214C147.417 17.4751 148.593 16.3534 149.644 15.0484L149.652 15.0561ZM125.796 16.6586C123.164 14.2777 125.236 9.66847 127.284 7.65384C128.187 6.761 129.761 5.4637 131.139 5.49423C133.569 5.55528 132.596 8.65353 131.965 10.0958C130.625 13.1483 128.437 15.2392 125.789 16.6586H125.796ZM131.318 18.368C133.149 16.7578 134.784 14.6593 135.851 12.4157C135.501 14.3464 135.571 16.3152 136.311 17.9406C134.761 18.223 133.001 18.4138 131.318 18.368ZM140.61 16.712C140.61 16.712 140.563 16.6739 140.548 16.651C139.301 15.224 140.345 12.0265 141.015 10.5842C141.778 8.95114 143.009 7.39439 144.543 6.37944C145.999 5.41792 148.149 4.8761 148.461 7.11966C148.655 8.50854 147.767 10.0958 147.035 11.2176C145.493 13.5985 143.227 15.5521 140.61 16.7044V16.712Z" fill="#FFA801"/>
<path d="M20.9352 3.20508C22.5318 4.45659 23.334 6.21176 23.334 8.47821C23.334 10.3402 22.8745 11.9733 21.9555 13.3698C21.0365 14.7663 19.728 15.8499 18.0379 16.6054C16.3478 17.3609 14.3696 17.7501 12.1265 17.7501H7.59369L6.42543 23.5574H0L4.53285 1.33545H14.1204C17.0566 1.33545 19.323 1.9612 20.9274 3.20508H20.9352ZM15.7014 11.8054C16.4647 11.1491 16.8541 10.2181 16.8541 9.0124C16.8541 8.10429 16.5503 7.41748 15.9273 6.96725C15.312 6.50938 14.4319 6.28807 13.287 6.28807H9.91463L8.58282 12.7975H12.4069C13.8322 12.7975 14.9304 12.4693 15.6936 11.813L15.7014 11.8054Z" fill="#333333"/>
<path d="M36.1303 6.06653L35.0633 11.4923C34.5259 11.4312 34.0586 11.4007 33.6692 11.4007C32.2829 11.4007 31.1769 11.7212 30.3513 12.3699C29.518 13.0185 28.965 14.0335 28.6846 15.43L27.0023 23.5571H20.8495L24.3465 6.34888H30.18L29.7906 8.25667C31.2626 6.79912 33.3732 6.06653 36.1381 6.06653H36.1303Z" fill="#333333"/>
<path d="M49.0699 6.93673C50.3784 7.5167 51.3987 8.39428 52.1308 9.55422C52.8629 10.7218 53.2289 12.1259 53.2289 13.7742C53.2289 13.9879 53.2056 14.3466 53.1666 14.8502L40.1444 17.2006C40.3781 17.9027 40.822 18.414 41.4529 18.7421C42.0915 19.0703 42.9483 19.2305 44.0308 19.2305C44.7863 19.2305 45.5262 19.1084 46.2505 18.8642C46.9749 18.62 47.6291 18.2766 48.2132 17.834L50.7756 21.6114C48.7195 23.0919 46.2272 23.8321 43.2909 23.8321C41.4295 23.8321 39.794 23.5116 38.3843 22.863C36.9668 22.2143 35.8764 21.3062 35.1131 20.131C34.3499 18.9558 33.9604 17.5746 33.9604 15.9873C33.9604 14.1024 34.4122 12.4083 35.3078 10.8897C36.2035 9.3787 37.4574 8.18824 39.0696 7.33355C40.6818 6.47886 42.5277 6.05151 44.6306 6.05151C46.2895 6.05151 47.7771 6.3415 49.0855 6.92147L49.0699 6.93673ZM41.5541 11.3475C40.8532 12.0115 40.3859 12.8967 40.1444 13.9956L47.5356 12.6601C47.4032 11.9199 47.0527 11.3475 46.4842 10.9431C45.9079 10.5386 45.1835 10.3402 44.2957 10.3402C43.1741 10.3402 42.2551 10.676 41.5541 11.3399V11.3475Z" fill="#333333"/>
</svg>
