<svg width="25" height="25" viewBox="0 0 25 25" fill="none" xmlns="http://www.w3.org/2000/svg">
<path d="M12.5 25C19.4036 25 25 19.4036 25 12.5C25 5.59644 19.4036 0 12.5 0C5.59645 0 0 5.59644 0 12.5C0 19.4036 5.59645 25 12.5 25Z" fill="#EF8E00"/>
<g opacity="0.45">
<mask id="mask0_161_382" style="mask-type:luminance" maskUnits="userSpaceOnUse" x="0" y="0" width="25" height="25">
<path d="M12.5 25C19.4036 25 25 19.4036 25 12.5C25 5.59644 19.4036 0 12.5 0C5.59645 0 0 5.59644 0 12.5C0 19.4036 5.59645 25 12.5 25Z" fill="white"/>
</mask>
<g mask="url(#mask0_161_382)">
<path opacity="0.49" d="M18.2488 -4.96246L-7.83813 21.1245L-5.58984 23.3728L20.4971 -2.71417L18.2488 -4.96246Z" fill="white"/>
<path opacity="0.49" d="M21.5572 -1.8819L-4.52979 24.2051L-3.34523 25.3896L22.7417 -0.697347L21.5572 -1.8819Z" fill="white"/>
<path opacity="0.49" d="M31.9407 3.78461L5.85376 29.8716L7.55173 31.5696L33.6387 5.48258L31.9407 3.78461Z" fill="white"/>
<path opacity="0.49" d="M34.1734 6.01605L8.08643 32.103L8.62669 32.6433L34.7137 6.55631L34.1734 6.01605Z" fill="white"/>
</g>
</g>
<path d="M12.5001 24.1266C18.9214 24.1266 24.1269 18.9212 24.1269 12.4998C24.1269 6.07854 18.9214 0.873047 12.5001 0.873047C6.07879 0.873047 0.873291 6.07854 0.873291 12.4998C0.873291 18.9212 6.07879 24.1266 12.5001 24.1266Z" stroke="#D97000" stroke-miterlimit="10"/>
<path d="M18.0952 13.7247C19.2342 12.2915 20.2925 9.72886 18.6173 8.24822C16.7997 6.63945 14.2892 8.50449 13.2215 10.0611C13.0364 10.3268 12.8655 10.64 12.7137 10.9675C12.7469 10.7682 12.7611 10.5688 12.7659 10.3695C12.8181 7.82586 10.3219 7.11876 8.39515 8.24822C6.45893 9.38243 5.09219 11.798 5.65218 14.0569C5.75183 14.4697 5.91319 14.8257 6.122 15.1389C5.7376 15.2433 5.34846 15.3335 4.95457 15.3951L4.56543 17.3551C5.71387 17.2175 6.90977 16.9707 7.98703 16.5483C8.98361 16.928 10.151 17.0276 11.2141 16.9897C12.2296 16.9517 13.2072 16.7856 14.1279 16.4819C15.357 16.9992 16.7902 17.2412 18.1474 17.3741L18.5223 15.509C17.8769 15.4379 17.2363 15.324 16.6004 15.1911C17.1461 14.7782 17.6491 14.2894 18.1 13.7199L18.0952 13.7247ZM7.91585 14.4223C6.79113 13.383 7.67856 11.3756 8.55176 10.5024C8.93616 10.1133 9.61004 9.54853 10.1985 9.56276C11.2378 9.59124 10.8202 10.939 10.5497 11.5654C9.9802 12.8942 9.04056 13.8054 7.91585 14.4223ZM10.2744 15.1674C11.0575 14.465 11.7503 13.5538 12.2059 12.5762C12.054 13.4162 12.0873 14.2752 12.4005 14.9823C11.7361 15.1057 10.991 15.1911 10.2697 15.1674H10.2744ZM14.237 14.446C14.237 14.446 14.218 14.427 14.2086 14.4175C13.677 13.7959 14.1231 12.4007 14.4079 11.779C14.7306 11.0671 15.2573 10.3885 15.9122 9.9519C16.5339 9.53429 17.4498 9.29701 17.5827 10.2746C17.6681 10.8773 17.2885 11.5702 16.9753 12.059C16.3156 13.0935 15.3523 13.9477 14.2323 14.4508L14.237 14.446Z" fill="#D97000"/>
<mask id="mask1_161_382" style="mask-type:luminance" maskUnits="userSpaceOnUse" x="4" y="7" width="16" height="11">
<path d="M18.0952 13.7247C19.2342 12.2915 20.2925 9.72886 18.6173 8.24822C16.7997 6.63945 14.2892 8.50449 13.2215 10.0611C13.0364 10.3268 12.8655 10.64 12.7137 10.9675C12.7469 10.7682 12.7611 10.5688 12.7659 10.3695C12.8181 7.82586 10.3219 7.11876 8.39515 8.24822C6.45893 9.38243 5.09219 11.798 5.65218 14.0569C5.75183 14.4697 5.91319 14.8257 6.122 15.1389C5.7376 15.2433 5.34846 15.3335 4.95457 15.3951L4.56543 17.3551C5.71387 17.2175 6.90977 16.9707 7.98703 16.5483C8.98361 16.928 10.151 17.0276 11.2141 16.9897C12.2296 16.9517 13.2072 16.7856 14.1279 16.4819C15.357 16.9992 16.7902 17.2412 18.1474 17.3741L18.5223 15.509C17.8769 15.4379 17.2363 15.324 16.6004 15.1911C17.1461 14.7782 17.6491 14.2894 18.1 13.7199L18.0952 13.7247ZM7.91585 14.4223C6.79113 13.383 7.67856 11.3756 8.55176 10.5024C8.93616 10.1133 9.61004 9.54853 10.1985 9.56276C11.2378 9.59124 10.8202 10.939 10.5497 11.5654C9.9802 12.8942 9.04056 13.8054 7.91585 14.4223ZM10.2744 15.1674C11.0575 14.465 11.7503 13.5538 12.2059 12.5762C12.054 13.4162 12.0873 14.2752 12.4005 14.9823C11.7361 15.1057 10.991 15.1911 10.2697 15.1674H10.2744ZM14.237 14.446C14.237 14.446 14.218 14.427 14.2086 14.4175C13.677 13.7959 14.1231 12.4007 14.4079 11.779C14.7306 11.0671 15.2573 10.3885 15.9122 9.9519C16.5339 9.53429 17.4498 9.29701 17.5827 10.2746C17.6681 10.8773 17.2885 11.5702 16.9753 12.059C16.3156 13.0935 15.3523 13.9477 14.2323 14.4508L14.237 14.446Z" fill="white"/>
</mask>
<g mask="url(#mask1_161_382)">
<g opacity="0.45">
<mask id="mask2_161_382" style="mask-type:luminance" maskUnits="userSpaceOnUse" x="0" y="0" width="25" height="25">
<path d="M12.5 25C19.4036 25 25 19.4036 25 12.5C25 5.59644 19.4036 0 12.5 0C5.59645 0 0 5.59644 0 12.5C0 19.4036 5.59645 25 12.5 25Z" fill="white"/>
</mask>
<g mask="url(#mask2_161_382)">
<path opacity="0.49" d="M17.17 -6.03571L-8.91699 20.0513L-5.59152 23.3767L20.4955 -2.71024L17.17 -6.03571Z" fill="white"/>
<path opacity="0.49" d="M21.5572 -1.8819L-4.52979 24.2051L-3.34523 25.3896L22.7417 -0.697347L21.5572 -1.8819Z" fill="white"/>
<path opacity="0.49" d="M31.9407 3.78461L5.85376 29.8716L7.55173 31.5696L33.6387 5.48258L31.9407 3.78461Z" fill="white"/>
<path opacity="0.49" d="M34.1734 6.01605L8.08643 32.103L8.62669 32.6433L34.7137 6.55631L34.1734 6.01605Z" fill="white"/>
</g>
</g>
</g>
</svg>
