<svg width="25" height="25" viewBox="0 0 25 25" fill="none" xmlns="http://www.w3.org/2000/svg">
<path d="M12.5 25C19.4036 25 25 19.4036 25 12.5C25 5.59644 19.4036 0 12.5 0C5.59644 0 0 5.59644 0 12.5C0 19.4036 5.59644 25 12.5 25Z" fill="#FFC83E"/>
<g opacity="0.45">
<mask id="mask0_161_330" style="mask-type:luminance" maskUnits="userSpaceOnUse" x="0" y="0" width="25" height="25">
<path d="M12.5 25C19.4036 25 25 19.4036 25 12.5C25 5.59644 19.4036 0 12.5 0C5.59644 0 0 5.59644 0 12.5C0 19.4036 5.59644 25 12.5 25Z" fill="white"/>
</mask>
<g mask="url(#mask0_161_330)">
<path opacity="0.49" d="M18.2474 -4.961L-7.8396 21.126L-5.5913 23.3743L20.4957 -2.7127L18.2474 -4.961Z" fill="white"/>
<path opacity="0.49" d="M21.5555 -1.88044L-4.53149 24.2065L-3.34694 25.3911L22.74 -0.695884L21.5555 -1.88044Z" fill="white"/>
<path opacity="0.49" d="M31.9393 3.78607L5.85229 29.873L7.55026 31.571L33.6372 5.48404L31.9393 3.78607Z" fill="white"/>
<path opacity="0.49" d="M34.1754 6.01458L8.08838 32.1016L8.62864 32.6418L34.7156 6.55485L34.1754 6.01458Z" fill="white"/>
</g>
</g>
<path d="M18.0996 13.7247C19.2386 12.2915 20.2969 9.72886 18.6216 8.24822C16.8041 6.63945 14.2936 8.50449 13.2259 10.0611C13.0408 10.3268 12.8699 10.64 12.7181 10.9675C12.7513 10.7682 12.7655 10.5688 12.7703 10.3695C12.8225 7.82586 10.3263 7.11876 8.39955 8.24822C6.46333 9.38243 5.09659 11.798 5.65657 14.0569C5.75623 14.4697 5.91758 14.8257 6.12639 15.1389C5.742 15.2433 5.35285 15.3335 4.95897 15.3951L4.56982 17.3551C5.71827 17.2175 6.91417 16.9707 7.99143 16.5483C8.98801 16.928 10.1554 17.0276 11.2185 16.9897C12.234 16.9517 13.2116 16.7856 14.1323 16.4819C15.3614 16.9992 16.7946 17.2412 18.1518 17.3741L18.5267 15.509C17.8813 15.4379 17.2407 15.324 16.6048 15.1911C17.1505 14.7782 17.6535 14.2894 18.1044 13.7199L18.0996 13.7247ZM7.92024 14.4223C6.79553 13.383 7.68296 11.3756 8.55616 10.5024C8.94055 10.1133 9.61443 9.54853 10.2029 9.56276C11.2422 9.59124 10.8246 10.939 10.5541 11.5654C9.98459 12.8942 9.04496 13.8054 7.92024 14.4223ZM10.2788 15.1674C11.0619 14.465 11.7547 13.5538 12.2103 12.5762C12.0584 13.4162 12.0917 14.2752 12.4049 14.9823C11.7405 15.1057 10.9954 15.1911 10.2741 15.1674H10.2788ZM14.2414 14.446C14.2414 14.446 14.2224 14.427 14.213 14.4175C13.6814 13.7959 14.1275 12.4007 14.4123 11.779C14.735 11.0671 15.2617 10.3885 15.9166 9.95191C16.5383 9.53429 17.4542 9.29701 17.5871 10.2746C17.6725 10.8773 17.2929 11.5702 16.9797 12.059C16.32 13.0935 15.3567 13.9477 14.2367 14.4508L14.2414 14.446Z" fill="#FFA801"/>
<path d="M12.5001 24.1267C18.9214 24.1267 24.1269 18.9212 24.1269 12.4999C24.1269 6.07854 18.9214 0.873047 12.5001 0.873047C6.07879 0.873047 0.873291 6.07854 0.873291 12.4999C0.873291 18.9212 6.07879 24.1267 12.5001 24.1267Z" stroke="#FFA801" stroke-miterlimit="10"/>
<mask id="mask1_161_330" style="mask-type:luminance" maskUnits="userSpaceOnUse" x="4" y="7" width="16" height="11">
<path d="M18.0996 13.7247C19.2386 12.2915 20.2969 9.72886 18.6216 8.24822C16.8041 6.63945 14.2936 8.50449 13.2259 10.0611C13.0408 10.3268 12.8699 10.64 12.7181 10.9675C12.7513 10.7682 12.7655 10.5688 12.7703 10.3695C12.8225 7.82586 10.3263 7.11876 8.39955 8.24822C6.46333 9.38243 5.09659 11.798 5.65657 14.0569C5.75623 14.4697 5.91758 14.8257 6.12639 15.1389C5.742 15.2433 5.35285 15.3335 4.95897 15.3951L4.56982 17.3551C5.71827 17.2175 6.91417 16.9707 7.99143 16.5483C8.98801 16.928 10.1554 17.0276 11.2185 16.9897C12.234 16.9517 13.2116 16.7856 14.1323 16.4819C15.3614 16.9992 16.7946 17.2412 18.1518 17.3741L18.5267 15.509C17.8813 15.4379 17.2407 15.324 16.6048 15.1911C17.1505 14.7782 17.6535 14.2894 18.1044 13.7199L18.0996 13.7247ZM7.92024 14.4223C6.79553 13.383 7.68296 11.3756 8.55616 10.5024C8.94055 10.1133 9.61443 9.54853 10.2029 9.56276C11.2422 9.59124 10.8246 10.939 10.5541 11.5654C9.98459 12.8942 9.04496 13.8054 7.92024 14.4223ZM10.2788 15.1674C11.0619 14.465 11.7547 13.5538 12.2103 12.5762C12.0584 13.4162 12.0917 14.2752 12.4049 14.9823C11.7405 15.1057 10.9954 15.1911 10.2741 15.1674H10.2788ZM14.2414 14.446C14.2414 14.446 14.2224 14.427 14.213 14.4175C13.6814 13.7959 14.1275 12.4007 14.4123 11.779C14.735 11.0671 15.2617 10.3885 15.9166 9.95191C16.5383 9.53429 17.4542 9.29701 17.5871 10.2746C17.6725 10.8773 17.2929 11.5702 16.9797 12.059C16.32 13.0935 15.3567 13.9477 14.2367 14.4508L14.2414 14.446Z" fill="white"/>
</mask>
<g mask="url(#mask1_161_330)">
<g opacity="0.45">
<mask id="mask2_161_330" style="mask-type:luminance" maskUnits="userSpaceOnUse" x="0" y="0" width="25" height="25">
<path d="M12.5 25C19.4036 25 25 19.4036 25 12.5C25 5.59644 19.4036 0 12.5 0C5.59644 0 0 5.59644 0 12.5C0 19.4036 5.59644 25 12.5 25Z" fill="white"/>
</mask>
<g mask="url(#mask2_161_330)">
<path opacity="0.49" d="M17.1717 -6.03766L-8.91528 20.0493L-5.58981 23.3748L20.4972 -2.71219L17.1717 -6.03766Z" fill="white"/>
<path opacity="0.49" d="M21.5555 -1.88044L-4.53149 24.2065L-3.34694 25.3911L22.74 -0.695884L21.5555 -1.88044Z" fill="white"/>
<path opacity="0.49" d="M31.9393 3.78607L5.85229 29.873L7.55026 31.571L33.6372 5.48404L31.9393 3.78607Z" fill="white"/>
<path opacity="0.49" d="M34.1754 6.0141L8.08838 32.1011L8.62864 32.6413L34.7156 6.55436L34.1754 6.0141Z" fill="white"/>
</g>
</g>
</g>
</svg>
